<?xml version="1.0" standalone="no"?>
<!DOCTYPE svg PUBLIC "-//W3C//DTD SVG 20010904//EN"
 "http://www.w3.org/TR/2001/REC-SVG-20010904/DTD/svg10.dtd">
<svg version="1.0" xmlns="http://www.w3.org/2000/svg"
 width="825.000000pt" height="525.000000pt" viewBox="0 0 825.000000 525.000000"
 preserveAspectRatio="xMidYMid meet">

<g transform="translate(0.000000,525.000000) scale(0.100000,-0.100000)"
fill="#000000" stroke="none">
<path d="M2349 3947 c-158 -210 -351 -405 -572 -576 l-107 -83 0 -234 c0 -129
4 -234 9 -234 5 0 69 40 144 90 138 91 282 202 397 304 l65 58 3 -1041 2
-1041 210 0 210 0 0 1430 0 1430 -142 0 -143 0 -76 -103z"/>
<path d="M2860 2620 l0 -1430 210 0 210 0 0 1040 c0 572 2 1040 5 1040 3 0 52
-40 108 -88 56 -49 139 -116 183 -150 81 -61 308 -212 319 -212 3 0 5 107 5
238 l0 237 -42 30 c-211 149 -477 413 -652 648 l-58 77 -144 0 -144 0 0 -1430z"/>
<path d="M4212 3538 l3 -513 28 -57 c58 -117 146 -163 318 -163 102 0 109 2
175 35 53 27 76 46 101 84 62 92 63 99 63 638 l0 488 -140 0 -140 0 0 -457 c0
-516 1 -508 -65 -508 -66 0 -65 -8 -65 508 l0 457 -140 0 -141 0 3 -512z"/>
<path d="M5040 3435 l0 -615 140 0 140 0 0 190 0 190 75 0 c154 0 243 42 299
140 l31 55 3 215 c4 242 -2 278 -55 340 -72 84 -141 100 -423 100 l-210 0 0
-615z m386 361 c17 -13 19 -29 22 -136 5 -164 0 -188 -43 -206 -19 -8 -46 -14
-60 -14 l-25 0 0 185 0 185 43 0 c24 0 52 -6 63 -14z"/>
<path d="M5850 3435 l0 -615 131 0 130 0 -3 314 -3 314 93 -251 c51 -139 103
-279 115 -312 l23 -60 127 -3 127 -3 0 616 0 615 -130 0 -130 0 -1 -307 0
-308 -112 308 -111 307 -128 0 -128 0 0 -615z"/>
<path d="M5533 2489 c-30 -16 -47 -61 -39 -104 6 -30 17 -42 62 -71 47 -30 55
-39 52 -62 -6 -51 -57 -37 -58 16 0 18 -6 22 -30 22 -29 0 -30 -2 -30 -45 0
-62 24 -85 88 -85 68 0 92 24 92 94 0 57 -12 74 -77 112 -25 14 -33 25 -33 46
0 41 38 39 47 -2 4 -25 10 -30 34 -30 26 0 29 3 29 34 0 19 -8 44 -18 56 -20
25 -86 35 -119 19z"/>
<path d="M4250 2378 c1 -182 16 -218 93 -218 83 0 97 31 97 206 l0 124 -35 0
-34 0 -3 -132 c-3 -125 -4 -133 -23 -133 -19 0 -20 8 -23 133 l-3 132 -34 0
-35 0 0 -112z"/>
<path d="M4480 2325 l0 -165 25 0 c24 0 24 1 27 98 l3 97 34 -85 c41 -102 47
-110 77 -110 l24 0 0 165 0 165 -30 0 -29 0 -3 -87 -3 -88 -34 88 c-32 81 -36
87 -62 87 l-29 0 0 -165z"/>
<path d="M4700 2464 c0 -17 6 -28 20 -31 18 -5 20 -14 20 -109 0 -98 -1 -104
-21 -104 -16 0 -20 -5 -17 -27 3 -27 5 -28 71 -31 l67 -3 0 29 c0 21 -6 31
-20 35 -18 5 -20 14 -20 106 0 94 1 101 20 101 16 0 20 7 20 30 l0 30 -70 0
c-69 0 -70 0 -70 -26z"/>
<path d="M4860 2487 c0 -2 16 -74 35 -160 19 -86 35 -159 35 -162 0 -4 15 -5
33 -3 l32 3 35 160 36 160 -29 3 c-16 2 -31 1 -33 -1 -3 -2 -13 -47 -23 -98
l-17 -94 -19 98 -19 97 -33 0 c-18 0 -33 -1 -33 -3z"/>
<path d="M5090 2325 l0 -165 80 0 80 0 0 30 c0 29 -1 30 -50 30 l-50 0 0 40 0
40 45 0 c43 0 45 1 45 30 0 29 -2 30 -45 30 -45 0 -45 0 -45 35 l0 35 50 0
c49 0 50 1 50 30 l0 30 -80 0 -80 0 0 -165z"/>
<path d="M5282 2328 l3 -163 27 -3 c27 -3 27 -2 30 60 3 55 5 63 23 63 16 0
21 -8 23 -40 5 -75 10 -85 43 -85 l31 0 -6 73 c-6 89 -6 78 0 158 5 61 4 68
-17 83 -16 11 -45 16 -91 16 l-68 0 2 -162z m102 106 c21 -8 21 -67 1 -84 -27
-22 -45 -4 -45 45 0 46 8 53 44 39z"/>
<path d="M5700 2460 c0 -20 5 -30 15 -30 12 0 15 -18 15 -105 0 -87 -3 -105
-15 -105 -10 0 -15 -10 -15 -30 l0 -30 65 0 65 0 0 30 c0 20 -5 30 -15 30 -12
0 -15 18 -15 105 0 87 3 105 15 105 10 0 15 10 15 30 l0 30 -65 0 -65 0 0 -30z"/>
<path d="M5870 2324 l0 -166 66 4 c58 4 70 8 90 32 22 25 24 36 24 137 0 103
-1 111 -25 134 -21 22 -33 25 -90 25 l-65 0 0 -166z m100 106 c10 -6 16 -32
18 -88 4 -87 -7 -122 -38 -122 -19 0 -20 7 -20 110 0 113 4 123 40 100z"/>
<path d="M6135 2478 c-8 -24 -65 -288 -65 -303 0 -10 10 -15 29 -15 23 0 30 5
33 23 2 17 11 23 35 25 28 3 33 -1 39 -22 5 -20 12 -26 35 -26 35 0 35 -1 4
141 -44 195 -42 189 -76 189 -16 0 -32 -6 -34 -12z m45 -145 c0 -10 3 -28 6
-40 5 -19 2 -23 -16 -23 -18 0 -21 4 -16 23 3 12 6 30 6 40 0 9 5 17 10 17 6
0 10 -8 10 -17z"/>
<path d="M6300 2325 l0 -165 49 0 c59 0 108 16 121 40 6 10 10 70 10 134 0
112 -1 115 -26 135 -21 16 -41 21 -90 21 l-64 0 0 -165z m104 99 c12 -11 16
-36 16 -98 0 -85 -8 -106 -42 -106 -16 0 -18 11 -18 110 0 89 3 110 14 110 8
0 22 -7 30 -16z"/>
<path d="M4260 1845 l0 -165 30 0 c29 0 30 1 30 50 0 46 2 50 25 50 66 0 95
38 95 126 0 45 -4 59 -25 79 -21 22 -33 25 -90 25 l-65 0 0 -165z m108 53 c-3
-46 -6 -53 -25 -56 -22 -3 -23 0 -23 52 0 53 1 56 26 56 24 0 25 -2 22 -52z"/>
<path d="M4470 1845 l0 -165 30 0 30 0 0 60 c0 57 1 60 25 60 24 0 25 -3 25
-60 l0 -60 35 0 35 0 0 53 c0 28 -6 63 -13 77 -11 22 -11 28 0 38 7 8 13 34
13 63 0 40 -5 55 -25 74 -21 22 -33 25 -90 25 l-65 0 0 -165z m116 81 c9 -38
-4 -66 -32 -66 -22 0 -24 4 -24 45 0 41 2 45 25 45 18 0 26 -7 31 -24z"/>
<path d="M4680 1980 c0 -20 5 -30 15 -30 12 0 15 -18 15 -105 0 -87 -3 -105
-15 -105 -10 0 -15 -10 -15 -30 l0 -30 65 0 65 0 0 30 c0 20 -5 30 -15 30 -12
0 -15 18 -15 105 0 87 3 105 15 105 10 0 15 10 15 30 l0 30 -65 0 -65 0 0 -30z"/>
<path d="M4834 1993 c2 -10 19 -84 37 -165 l32 -148 34 0 c18 0 33 2 33 5 0 6
60 287 66 308 4 14 -1 17 -28 17 l-34 0 -19 -97 -19 -98 -19 98 -20 97 -34 0
c-28 0 -33 -3 -29 -17z"/>
<path d="M5090 2007 c0 -2 -16 -74 -35 -160 -19 -86 -35 -159 -35 -162 0 -4
15 -5 33 -3 25 2 33 8 35 26 3 19 9 23 35 20 24 -2 33 -8 35 -25 3 -19 10 -23
39 -23 24 0 34 4 30 13 -2 6 -19 81 -38 165 l-34 152 -32 0 c-18 0 -33 -1 -33
-3z m49 -204 c1 -14 -5 -23 -13 -23 -22 0 -24 10 -13 60 10 44 11 45 18 15 3
-16 7 -40 8 -52z"/>
<path d="M5250 1846 l0 -166 66 0 c59 0 68 3 95 29 28 29 29 32 29 135 0 96
-2 107 -24 133 -21 24 -32 28 -95 31 l-71 4 0 -166z m115 -1 c0 -96 -1 -100
-22 -103 -23 -3 -23 -2 -23 103 0 105 0 106 23 103 21 -3 22 -7 22 -103z"/>
<path d="M5490 1858 c-18 -84 -35 -159 -37 -165 -4 -9 6 -13 30 -13 29 0 36 4
39 23 2 17 11 23 35 25 26 3 32 -1 35 -20 2 -18 10 -24 36 -26 17 -2 32 -1 32
3 0 3 -16 75 -35 159 -19 85 -35 157 -35 160 0 3 -15 6 -33 6 l-33 0 -34 -152z
m79 -26 c7 -35 6 -44 -5 -49 -23 -8 -26 1 -19 52 4 25 9 44 11 43 1 -2 7 -23
13 -46z"/>
<path d="M4260 1366 l0 -166 68 0 c59 0 72 3 90 23 20 21 22 34 22 138 0 143
-9 156 -113 166 l-67 6 0 -167z m110 85 c5 -11 10 -52 10 -91 0 -80 -11 -110
-40 -110 -19 0 -20 7 -20 110 0 103 1 110 20 110 10 0 24 -9 30 -19z"/>
<path d="M4480 1365 l0 -165 80 0 c78 0 80 1 80 24 0 23 -5 25 -47 28 -47 3
-48 3 -51 40 -3 37 -3 37 40 40 39 3 43 6 46 31 3 26 2 27 -43 27 l-46 0 3 38
c3 37 3 37 51 40 46 3 48 4 45 30 -3 26 -5 27 -80 30 l-78 3 0 -166z"/>
<path d="M4670 1366 l0 -166 75 0 75 0 0 30 c0 28 -2 30 -40 30 l-39 0 -3 133
-3 132 -32 3 -33 3 0 -165z"/>
<path d="M4957 1523 c-4 -3 -7 -78 -7 -165 l0 -158 30 0 30 0 0 93 1 92 37
-90 c36 -85 40 -90 70 -93 l33 -3 -3 163 -3 163 -27 3 -28 3 0 -98 -1 -98 -41
98 c-34 81 -44 97 -63 97 -12 0 -25 -3 -28 -7z"/>
<path d="M5213 1506 c-28 -24 -28 -25 -28 -146 0 -121 0 -122 28 -146 38 -32
96 -33 133 -1 25 22 28 31 32 110 6 107 -3 153 -33 183 -33 33 -94 33 -132 0z
m95 -126 c4 -109 -2 -132 -31 -128 -21 3 -22 9 -25 97 -3 110 0 124 30 119 22
-3 23 -8 26 -88z"/>
<path d="M5418 1524 c-5 -4 -8 -79 -8 -166 l0 -158 30 0 30 0 0 60 c0 57 1 60
24 60 26 0 36 -21 36 -82 0 -35 2 -38 30 -38 l30 0 0 63 c0 36 -5 68 -12 75
-9 9 -9 15 0 24 7 7 12 37 12 68 0 74 -17 91 -102 97 -35 3 -66 2 -70 -3z
m107 -99 c0 -36 -3 -40 -27 -43 -27 -3 -28 -2 -28 43 0 45 1 46 28 43 24 -3
27 -7 27 -43z"/>
<path d="M5610 1501 c0 -25 4 -30 28 -33 l27 -3 3 -132 3 -133 29 0 30 0 0
135 0 135 25 0 c21 0 25 5 25 30 l0 30 -85 0 -85 0 0 -29z"/>
<path d="M5810 1365 l0 -165 80 0 c79 0 80 0 80 25 0 23 -4 25 -45 25 l-45 0
0 40 0 40 40 0 c38 0 40 2 40 30 0 28 -2 30 -40 30 l-40 0 0 40 0 40 45 0 c43
0 45 1 45 30 l0 30 -80 0 -80 0 0 -165z"/>
</g>
</svg>
